<svg width="106" height="45" viewBox="0 0 106 45" fill="none" xmlns="http://www.w3.org/2000/svg">
<path d="M7.14258 33.8594C5.87305 33.8594 5.23828 33.2246 5.23828 31.9551V28.0879C5.23828 26.9746 5.53125 26.0078 6.11719 25.1875L22.3477 2.33594C23.0703 1.32031 23.9785 0.8125 25.0723 0.8125H29.3789C30.668 0.8125 31.3125 1.44727 31.3125 2.7168V26.5938H34.8574C36.127 26.5938 36.7617 27.2285 36.7617 28.498V31.9551C36.7617 33.2246 36.1367 33.8594 34.8867 33.8594H31.3125V41.0957C31.3125 42.3652 30.6777 43 29.4082 43H25.0137C23.7441 43 23.1094 42.3652 23.1094 41.0957V33.8594H7.14258ZM13.4121 26.5938H23.1094V15.2559C23.1094 14.4746 23.1484 13.6934 23.2266 12.9121H23.1094L13.4121 26.5938Z" fill="#1A1A1A"/>
<path d="M37 22.1699C37 14.2598 38.2305 8.64453 40.6914 5.32422C43.1523 2.00391 46.9219 0.34375 52 0.34375C57.0781 0.34375 60.8477 2.00391 63.3086 5.32422C65.7695 8.64453 67 14.2598 67 22.1699C67 30.0801 65.7695 35.6953 63.3086 39.0156C60.8477 42.3359 57.0781 43.9961 52 43.9961C46.9219 43.9961 43.1523 42.3359 40.6914 39.0156C38.2305 35.6953 37 30.0801 37 22.1699ZM45.6719 22.1699C45.6719 25.7832 45.9648 29.2598 46.5508 32.5996C47.1562 35.9395 48.9727 37.6094 52 37.6094C55.0273 37.6094 56.834 35.9395 57.4199 32.5996C58.0254 29.2598 58.3281 25.7832 58.3281 22.1699C58.3281 18.5566 58.0254 15.0801 57.4199 11.7402C56.834 8.40039 55.0273 6.73047 52 6.73047C48.9727 6.73047 47.1562 8.40039 46.5508 11.7402C45.9648 15.0801 45.6719 18.5566 45.6719 22.1699Z" fill="#1A1A1A"/>
<path d="M70.1426 33.8594C68.873 33.8594 68.2383 33.2246 68.2383 31.9551V28.0879C68.2383 26.9746 68.5312 26.0078 69.1172 25.1875L85.3477 2.33594C86.0703 1.32031 86.9785 0.8125 88.0723 0.8125H92.3789C93.668 0.8125 94.3125 1.44727 94.3125 2.7168V26.5938H97.8574C99.127 26.5938 99.7617 27.2285 99.7617 28.498V31.9551C99.7617 33.2246 99.1367 33.8594 97.8867 33.8594H94.3125V41.0957C94.3125 42.3652 93.6777 43 92.4082 43H88.0137C86.7441 43 86.1094 42.3652 86.1094 41.0957V33.8594H70.1426ZM76.4121 26.5938H86.1094V15.2559C86.1094 14.4746 86.1484 13.6934 86.2266 12.9121H86.1094L76.4121 26.5938Z" fill="#1A1A1A"/>
</svg>
