<svg width="418" height="42" viewBox="0 0 418 42" fill="none" xmlns="http://www.w3.org/2000/svg">
<path d="M9.56592 41H0.503418L14.312 0.999999H25.2104L38.9995 41H29.937L19.9175 10.1406H19.605L9.56592 41ZM8.99951 25.2773H30.4058V31.8789H8.99951V25.2773ZM43.814 41V0.999999H59.5952C62.616 0.999999 65.1942 1.54036 67.3296 2.62109C69.478 3.6888 71.1121 5.20573 72.2319 7.17188C73.3647 9.125 73.9312 11.4232 73.9312 14.0664C73.9312 16.7227 73.3582 19.0078 72.2124 20.9219C71.0666 22.8229 69.4064 24.2812 67.2319 25.2969C65.0705 26.3125 62.4533 26.8203 59.3804 26.8203H48.814V20.0234H58.0132C59.6278 20.0234 60.9689 19.8021 62.0366 19.3594C63.1043 18.9167 63.8986 18.2526 64.4194 17.3672C64.9533 16.4818 65.2202 15.3815 65.2202 14.0664C65.2202 12.7383 64.9533 11.6185 64.4194 10.707C63.8986 9.79557 63.0978 9.10547 62.0171 8.63672C60.9494 8.15495 59.6017 7.91406 57.9741 7.91406H52.271V41H43.814ZM65.4155 22.7969L75.3569 41H66.021L56.2944 22.7969H65.4155ZM78.3843 7.97265V0.999999H111.236V7.97265H98.9897V41H90.6304V7.97265H78.3843Z" fill="#1A1A1A"/>
<path d="M129.375 41V0.999999H145.157C148.191 0.999999 150.775 1.57943 152.911 2.73828C155.046 3.88411 156.674 5.47917 157.793 7.52344C158.926 9.55469 159.493 11.8984 159.493 14.5547C159.493 17.2109 158.92 19.5547 157.774 21.5859C156.628 23.6172 154.968 25.1992 152.793 26.332C150.632 27.4648 148.015 28.0312 144.942 28.0312H134.883V21.2539H143.575C145.202 21.2539 146.543 20.974 147.598 20.4141C148.666 19.8411 149.46 19.0534 149.981 18.0508C150.515 17.0352 150.782 15.8698 150.782 14.5547C150.782 13.2266 150.515 12.0677 149.981 11.0781C149.46 10.0755 148.666 9.30078 147.598 8.75391C146.53 8.19401 145.176 7.91406 143.536 7.91406H137.833V41H129.375ZM164.986 41V0.999999H180.767C183.788 0.999999 186.366 1.54036 188.501 2.62109C190.65 3.6888 192.284 5.20573 193.404 7.17188C194.537 9.125 195.103 11.4232 195.103 14.0664C195.103 16.7227 194.53 19.0078 193.384 20.9219C192.238 22.8229 190.578 24.2812 188.404 25.2969C186.242 26.3125 183.625 26.8203 180.552 26.8203H169.986V20.0234H179.185C180.8 20.0234 182.141 19.8021 183.208 19.3594C184.276 18.9167 185.07 18.2526 185.591 17.3672C186.125 16.4818 186.392 15.3815 186.392 14.0664C186.392 12.7383 186.125 11.6185 185.591 10.707C185.07 9.79557 184.27 9.10547 183.189 8.63672C182.121 8.15495 180.774 7.91406 179.146 7.91406H173.443V41H164.986ZM186.587 22.7969L196.529 41H187.193L177.466 22.7969H186.587ZM237.837 21C237.837 25.362 237.011 29.0729 235.357 32.1328C233.716 35.1927 231.477 37.5299 228.638 39.1445C225.813 40.7461 222.636 41.5469 219.107 41.5469C215.552 41.5469 212.362 40.7396 209.537 39.125C206.711 37.5104 204.478 35.1732 202.837 32.1133C201.197 29.0534 200.376 25.349 200.376 21C200.376 16.638 201.197 12.9271 202.837 9.86719C204.478 6.80729 206.711 4.47656 209.537 2.875C212.362 1.26042 215.552 0.453124 219.107 0.453124C222.636 0.453124 225.813 1.26042 228.638 2.875C231.477 4.47656 233.716 6.80729 235.357 9.86719C237.011 12.9271 237.837 16.638 237.837 21ZM229.263 21C229.263 18.1745 228.84 15.7917 227.994 13.8516C227.16 11.9115 225.982 10.4401 224.458 9.4375C222.935 8.4349 221.151 7.93359 219.107 7.93359C217.063 7.93359 215.279 8.4349 213.755 9.4375C212.232 10.4401 211.047 11.9115 210.201 13.8516C209.367 15.7917 208.951 18.1745 208.951 21C208.951 23.8255 209.367 26.2083 210.201 28.1484C211.047 30.0885 212.232 31.5599 213.755 32.5625C215.279 33.5651 217.063 34.0664 219.107 34.0664C221.151 34.0664 222.935 33.5651 224.458 32.5625C225.982 31.5599 227.16 30.0885 227.994 28.1484C228.84 26.2083 229.263 23.8255 229.263 21ZM260.118 0.999999H268.477V28.8906C268.477 31.4687 267.898 33.7083 266.739 35.6094C265.593 37.5104 263.998 38.9753 261.954 40.0039C259.909 41.0326 257.533 41.5469 254.825 41.5469C252.416 41.5469 250.228 41.1237 248.262 40.2773C246.309 39.418 244.76 38.1159 243.614 36.3711C242.468 34.6133 241.902 32.4062 241.915 29.75H250.333C250.359 30.8047 250.573 31.7096 250.977 32.4648C251.394 33.207 251.96 33.7799 252.676 34.1836C253.405 34.5742 254.265 34.7695 255.254 34.7695C256.296 34.7695 257.175 34.5482 257.891 34.1055C258.62 33.6497 259.174 32.9857 259.551 32.1133C259.929 31.2409 260.118 30.1667 260.118 28.8906V0.999999ZM275.469 41V0.999999H302.422V7.97265H283.926V17.5039H301.036V24.4766H283.926V34.0273H302.5V41H275.469ZM344.439 15.0039H335.884C335.728 13.8971 335.409 12.9141 334.927 12.0547C334.445 11.1823 333.827 10.4401 333.072 9.82812C332.317 9.21614 331.444 8.74739 330.455 8.42187C329.478 8.09635 328.417 7.93359 327.271 7.93359C325.201 7.93359 323.397 8.44792 321.861 9.47656C320.324 10.4922 319.133 11.9766 318.287 13.9297C317.44 15.8698 317.017 18.2266 317.017 21C317.017 23.8516 317.44 26.2474 318.287 28.1875C319.146 30.1276 320.344 31.5924 321.88 32.582C323.417 33.5716 325.194 34.0664 327.212 34.0664C328.345 34.0664 329.393 33.9167 330.357 33.6172C331.333 33.3177 332.199 32.8815 332.955 32.3086C333.71 31.7227 334.335 31.013 334.83 30.1797C335.337 29.3464 335.689 28.3958 335.884 27.3281L344.439 27.3672C344.218 29.2031 343.664 30.974 342.779 32.6797C341.906 34.3724 340.728 35.8893 339.244 37.2305C337.772 38.5586 336.014 39.6133 333.97 40.3945C331.939 41.1628 329.641 41.5469 327.076 41.5469C323.508 41.5469 320.318 40.7396 317.505 39.125C314.706 37.5104 312.492 35.1732 310.865 32.1133C309.25 29.0534 308.443 25.349 308.443 21C308.443 16.638 309.263 12.9271 310.904 9.86719C312.544 6.80729 314.771 4.47656 317.583 2.875C320.396 1.26042 323.56 0.453124 327.076 0.453124C329.393 0.453124 331.542 0.778644 333.521 1.42969C335.513 2.08073 337.278 3.03125 338.814 4.28125C340.35 5.51823 341.6 7.03515 342.564 8.83203C343.541 10.6289 344.166 12.6862 344.439 15.0039ZM348.98 7.97265V0.999999H381.832V7.97265H369.585V41H361.226V7.97265H348.98ZM408.941 12.5039C408.785 10.9284 408.114 9.70443 406.929 8.83203C405.744 7.95963 404.136 7.52344 402.105 7.52344C400.725 7.52344 399.559 7.71875 398.609 8.10937C397.658 8.48698 396.929 9.01432 396.421 9.6914C395.927 10.3685 395.679 11.1367 395.679 11.9961C395.653 12.7122 395.803 13.3372 396.128 13.8711C396.467 14.4049 396.929 14.8672 397.515 15.2578C398.101 15.6354 398.778 15.9674 399.546 16.2539C400.315 16.5273 401.135 16.7617 402.007 16.957L405.601 17.8164C407.346 18.207 408.947 18.7279 410.406 19.3789C411.864 20.0299 413.127 20.8307 414.195 21.7812C415.263 22.7318 416.089 23.8516 416.675 25.1406C417.274 26.4297 417.58 27.9076 417.593 29.5742C417.58 32.0221 416.955 34.1445 415.718 35.9414C414.494 37.7253 412.723 39.112 410.406 40.1016C408.101 41.0781 405.321 41.5664 402.066 41.5664C398.837 41.5664 396.024 41.0716 393.628 40.082C391.246 39.0924 389.384 37.6276 388.042 35.6875C386.714 33.7344 386.018 31.319 385.953 28.4414H394.136C394.227 29.7826 394.611 30.9023 395.289 31.8008C395.979 32.6862 396.897 33.3568 398.042 33.8125C399.201 34.2552 400.51 34.4766 401.968 34.4766C403.401 34.4766 404.644 34.2682 405.699 33.8516C406.766 33.4349 407.593 32.8555 408.179 32.1133C408.765 31.3711 409.058 30.5182 409.058 29.5547C409.058 28.6562 408.791 27.901 408.257 27.2891C407.736 26.6771 406.968 26.1562 405.953 25.7266C404.95 25.2969 403.72 24.9062 402.261 24.5547L397.906 23.4609C394.533 22.6406 391.871 21.3581 389.917 19.6133C387.964 17.8685 386.994 15.5182 387.007 12.5625C386.994 10.1406 387.639 8.02474 388.941 6.21484C390.256 4.40495 392.059 2.99219 394.351 1.97656C396.643 0.960936 399.247 0.453124 402.164 0.453124C405.132 0.453124 407.723 0.960936 409.937 1.97656C412.164 2.99219 413.895 4.40495 415.132 6.21484C416.369 8.02474 417.007 10.1211 417.046 12.5039H408.941Z" fill="#E34D4D"/>
</svg>
