<svg width="412" height="91" viewBox="0 0 412 91" fill="none" xmlns="http://www.w3.org/2000/svg">
<path d="M0.137784 0.90909H7.72301L15.7344 20.4545H16.0753L24.0866 0.90909H31.6719V30H25.706V11.0653H25.4645L17.9361 29.858H13.8736L6.34517 10.9943H6.10369V30H0.137784V0.90909ZM41.7536 30H35.1626L45.2053 0.90909H53.1314L63.1598 30H56.5689L49.282 7.55682H49.0547L41.7536 30ZM41.3416 18.5653H56.9098V23.3665H41.3416V18.5653ZM66.6612 30V0.90909H78.1385C80.3449 0.90909 82.2247 1.33049 83.7777 2.1733C85.3307 3.00663 86.5144 4.16667 87.3288 5.65341C88.1527 7.13068 88.5646 8.83523 88.5646 10.767C88.5646 12.6989 88.148 14.4034 87.3146 15.8807C86.4813 17.358 85.2739 18.5085 83.6925 19.3324C82.1205 20.1562 80.2171 20.5682 77.9822 20.5682H70.6669V15.6392H76.9879C78.1716 15.6392 79.147 15.4356 79.9141 15.0284C80.6906 14.6117 81.2682 14.0388 81.647 13.3097C82.0353 12.571 82.2294 11.7235 82.2294 10.767C82.2294 9.80114 82.0353 8.95833 81.647 8.23864C81.2682 7.50947 80.6906 6.94602 79.9141 6.5483C79.1375 6.1411 78.1527 5.9375 76.9595 5.9375H72.8118V30H66.6612ZM92.5597 30V0.90909H104.037C106.243 0.90909 108.123 1.33049 109.676 2.1733C111.229 3.00663 112.413 4.16667 113.227 5.65341C114.051 7.13068 114.463 8.83523 114.463 10.767C114.463 12.6989 114.046 14.4034 113.213 15.8807C112.38 17.358 111.172 18.5085 109.591 19.3324C108.019 20.1562 106.116 20.5682 103.881 20.5682H96.5653V15.6392H102.886C104.07 15.6392 105.045 15.4356 105.812 15.0284C106.589 14.6117 107.167 14.0388 107.545 13.3097C107.934 12.571 108.128 11.7235 108.128 10.767C108.128 9.80114 107.934 8.95833 107.545 8.23864C107.167 7.50947 106.589 6.94602 105.812 6.5483C105.036 6.1411 104.051 5.9375 102.858 5.9375H98.7102V30H92.5597ZM124.609 0.90909V30H118.458V0.90909H124.609ZM154.001 0.90909V30H148.689L136.033 11.6903H135.82V30H129.669V0.90909H135.067L147.624 19.2045H147.879V0.90909H154.001ZM178.373 10.3125C178.174 9.62121 177.895 9.01042 177.535 8.48011C177.175 7.94034 176.735 7.4858 176.214 7.11648C175.702 6.73769 175.115 6.44886 174.452 6.25C173.799 6.05114 173.075 5.9517 172.279 5.9517C170.792 5.9517 169.486 6.32102 168.359 7.05966C167.241 7.79829 166.37 8.87311 165.745 10.2841C165.12 11.6856 164.808 13.3996 164.808 15.4261C164.808 17.4527 165.115 19.1761 165.731 20.5966C166.346 22.017 167.218 23.1013 168.344 23.8494C169.471 24.5881 170.802 24.9574 172.336 24.9574C173.728 24.9574 174.916 24.7112 175.901 24.2188C176.896 23.7169 177.653 23.0114 178.174 22.1023C178.704 21.1932 178.969 20.1184 178.969 18.8778L180.219 19.0625H172.719V14.4318H184.893V18.0966C184.893 20.6534 184.353 22.8504 183.273 24.6875C182.194 26.5152 180.707 27.9261 178.813 28.9205C176.919 29.9053 174.751 30.3977 172.308 30.3977C169.58 30.3977 167.184 29.7964 165.12 28.5938C163.056 27.3816 161.446 25.6629 160.29 23.4375C159.145 21.2027 158.572 18.5511 158.572 15.483C158.572 13.125 158.913 11.0227 159.594 9.17614C160.286 7.32008 161.252 5.74811 162.492 4.46023C163.733 3.17235 165.177 2.19223 166.825 1.51989C168.472 0.847537 170.257 0.511363 172.18 0.511363C173.827 0.511363 175.362 0.75284 176.782 1.2358C178.202 1.70928 179.462 2.38163 180.56 3.25284C181.668 4.12405 182.573 5.16098 183.273 6.36364C183.974 7.55682 184.424 8.87311 184.623 10.3125H178.373ZM46.4073 64.581V71.7827H26.5067V64.581H46.4073ZM74.5323 64.581V71.7827H54.6317V64.581H74.5323ZM106.109 58.9134C105.939 57.1946 105.207 55.8594 103.914 54.9077C102.622 53.956 100.868 53.4801 98.6516 53.4801C97.146 53.4801 95.8746 53.6932 94.8377 54.1193C93.8008 54.5312 93.0053 55.1065 92.4513 55.8452C91.9116 56.5838 91.6417 57.4219 91.6417 58.3594C91.6133 59.1406 91.7766 59.8224 92.1317 60.4048C92.5011 60.9872 93.0053 61.4915 93.6445 61.9176C94.2837 62.3295 95.0224 62.6918 95.8604 63.0043C96.6985 63.3026 97.5934 63.5582 98.5451 63.7713L102.466 64.7088C104.369 65.1349 106.116 65.7031 107.707 66.4134C109.298 67.1236 110.676 67.9972 111.841 69.0341C113.005 70.071 113.907 71.2926 114.547 72.6989C115.2 74.1051 115.534 75.7173 115.548 77.5355C115.534 80.206 114.852 82.5213 113.502 84.4815C112.167 86.4276 110.235 87.9403 107.707 89.0199C105.193 90.0852 102.16 90.6179 98.609 90.6179C95.0863 90.6179 92.0181 90.0781 89.4045 88.9986C86.805 87.919 84.7738 86.321 83.3107 84.2045C81.8619 82.0739 81.1019 79.4389 81.0309 76.2997H89.9585C90.0579 77.7628 90.4769 78.9844 91.2156 79.9645C91.9684 80.9304 92.9698 81.6619 94.2198 82.1591C95.484 82.642 96.9116 82.8835 98.5025 82.8835C100.065 82.8835 101.422 82.6562 102.572 82.2017C103.737 81.7472 104.639 81.1151 105.278 80.3054C105.917 79.4957 106.237 78.5653 106.237 77.5142C106.237 76.5341 105.946 75.7102 105.363 75.0426C104.795 74.375 103.957 73.8068 102.849 73.3381C101.755 72.8693 100.413 72.4432 98.8221 72.0597L94.0707 70.8665C90.3917 69.9716 87.4869 68.5724 85.3562 66.669C83.2255 64.7656 82.1673 62.2017 82.1815 58.9773C82.1673 56.3352 82.8704 54.027 84.2908 52.0526C85.7255 50.0781 87.6928 48.5369 90.1928 47.429C92.6928 46.321 95.5337 45.767 98.7156 45.767C101.954 45.767 104.781 46.321 107.196 47.429C109.625 48.5369 111.514 50.0781 112.863 52.0526C114.213 54.027 114.909 56.3139 114.951 58.9134H106.109ZM121.754 90V46.3636H138.969C142.279 46.3636 145.099 46.9957 147.428 48.2599C149.758 49.5099 151.533 51.25 152.755 53.4801C153.991 55.696 154.609 58.2528 154.609 61.1506C154.609 64.0483 153.984 66.6051 152.734 68.821C151.484 71.0369 149.673 72.7628 147.3 73.9986C144.942 75.2344 142.087 75.8523 138.735 75.8523H127.762V68.4588H137.244C139.019 68.4588 140.482 68.1534 141.633 67.5426C142.798 66.9176 143.664 66.0582 144.232 64.9645C144.815 63.8565 145.106 62.5852 145.106 61.1506C145.106 59.7017 144.815 58.4375 144.232 57.358C143.664 56.2642 142.798 55.419 141.633 54.8224C140.468 54.2116 138.991 53.9062 137.201 53.9062H130.979V90H121.754ZM160.601 90V46.3636H190.005V53.9702H169.827V64.3679H188.492V71.9744H169.827V82.3935H190.09V90H160.601ZM235.841 61.6406H226.509C226.338 60.4332 225.99 59.3608 225.464 58.4233C224.939 57.4716 224.264 56.6619 223.44 55.9943C222.616 55.3267 221.665 54.8153 220.585 54.4602C219.52 54.1051 218.362 53.9276 217.112 53.9276C214.854 53.9276 212.886 54.4886 211.21 55.6108C209.534 56.7187 208.234 58.3381 207.311 60.4688C206.388 62.5852 205.926 65.1562 205.926 68.1818C205.926 71.2926 206.388 73.9062 207.311 76.0227C208.249 78.1392 209.555 79.7372 211.232 80.8168C212.908 81.8963 214.847 82.4361 217.048 82.4361C218.284 82.4361 219.428 82.2727 220.479 81.946C221.544 81.6193 222.489 81.1435 223.312 80.5185C224.136 79.8793 224.818 79.1051 225.358 78.196C225.912 77.2869 226.295 76.25 226.509 75.0852L235.841 75.1278C235.599 77.1307 234.996 79.0625 234.03 80.9233C233.078 82.7699 231.793 84.4247 230.173 85.8878C228.568 87.3366 226.651 88.4872 224.42 89.3395C222.205 90.1776 219.697 90.5966 216.899 90.5966C213.007 90.5966 209.527 89.7159 206.459 87.9545C203.405 86.1932 200.99 83.6435 199.214 80.3054C197.453 76.9673 196.572 72.9261 196.572 68.1818C196.572 63.4233 197.467 59.375 199.257 56.0369C201.047 52.6989 203.476 50.1562 206.544 48.4091C209.612 46.6477 213.064 45.767 216.899 45.767C219.428 45.767 221.771 46.1222 223.93 46.8324C226.104 47.5426 228.028 48.5795 229.705 49.9432C231.381 51.2926 232.744 52.9474 233.795 54.9077C234.861 56.8679 235.543 59.1122 235.841 61.6406ZM251.683 46.3636V90H242.457V46.3636H251.683ZM266.794 90H256.908L271.972 46.3636H283.861L298.904 90H289.017L278.087 56.3352H277.746L266.794 90ZM266.176 72.848H289.529V80.0497H266.176V72.848ZM304.156 90V46.3636H313.382V82.3935H332.089V90H304.156ZM356.368 64.581V71.7827H336.468V64.581H356.368ZM384.493 64.581V71.7827H364.593V64.581H384.493Z" fill="#E34D4D"/>
<path d="M198.771 0.90909H206.356L214.367 20.4545H214.708L222.719 0.90909H230.305V30H224.339V11.0653H224.097L216.569 29.858H212.506L204.978 10.9943H204.737V30H198.771V0.90909ZM235.372 30V0.90909H254.974V5.98011H241.523V12.9119H253.966V17.983H241.523V24.929H255.031V30H235.372ZM259.864 0.90909H267.45L275.461 20.4545H275.802L283.813 0.90909H291.398V30H285.433V11.0653H285.191L277.663 29.858H273.6L266.072 10.9943H265.83V30H259.864V0.90909ZM323.199 15.4545C323.199 18.6269 322.598 21.3258 321.395 23.5511C320.202 25.7765 318.573 27.4763 316.509 28.6506C314.454 29.8153 312.143 30.3977 309.577 30.3977C306.991 30.3977 304.671 29.8106 302.616 28.6364C300.562 27.4621 298.938 25.7623 297.744 23.5369C296.551 21.3116 295.955 18.6174 295.955 15.4545C295.955 12.2822 296.551 9.58333 297.744 7.35795C298.938 5.13258 300.562 3.4375 302.616 2.27273C304.671 1.09848 306.991 0.511363 309.577 0.511363C312.143 0.511363 314.454 1.09848 316.509 2.27273C318.573 3.4375 320.202 5.13258 321.395 7.35795C322.598 9.58333 323.199 12.2822 323.199 15.4545ZM316.963 15.4545C316.963 13.3996 316.655 11.6667 316.04 10.2557C315.434 8.8447 314.577 7.77462 313.469 7.04545C312.361 6.31629 311.063 5.9517 309.577 5.9517C308.09 5.9517 306.793 6.31629 305.685 7.04545C304.577 7.77462 303.715 8.8447 303.099 10.2557C302.493 11.6667 302.19 13.3996 302.19 15.4545C302.19 17.5095 302.493 19.2424 303.099 20.6534C303.715 22.0644 304.577 23.1345 305.685 23.8636C306.793 24.5928 308.09 24.9574 309.577 24.9574C311.063 24.9574 312.361 24.5928 313.469 23.8636C314.577 23.1345 315.434 22.0644 316.04 20.6534C316.655 19.2424 316.963 17.5095 316.963 15.4545ZM327.755 30V0.90909H339.232C341.429 0.90909 343.304 1.30208 344.857 2.08807C346.42 2.86458 347.608 3.9678 348.423 5.39773C349.246 6.81818 349.658 8.48958 349.658 10.4119C349.658 12.3437 349.242 14.0057 348.408 15.3977C347.575 16.7803 346.368 17.8409 344.786 18.5795C343.214 19.3182 341.311 19.6875 339.076 19.6875H331.391V14.7443H338.082C339.256 14.7443 340.231 14.5833 341.008 14.2614C341.784 13.9394 342.362 13.4564 342.741 12.8125C343.129 12.1686 343.323 11.3684 343.323 10.4119C343.323 9.44602 343.129 8.63163 342.741 7.96875C342.362 7.30587 341.78 6.80398 340.994 6.46307C340.217 6.11269 339.237 5.9375 338.053 5.9375H333.906V30H327.755ZM343.465 16.7614L350.695 30H343.906L336.832 16.7614H343.465ZM360.156 0.90909V30H354.005V0.90909H360.156ZM365.216 30V0.90909H384.818V5.98011H371.366V12.9119H383.81V17.983H371.366V24.929H384.875V30H365.216ZM405.489 9.27557C405.376 8.12973 404.888 7.23958 404.026 6.60511C403.165 5.97064 401.995 5.65341 400.518 5.65341C399.514 5.65341 398.666 5.79545 397.975 6.07955C397.284 6.35417 396.754 6.73769 396.384 7.23011C396.024 7.72254 395.844 8.28125 395.844 8.90625C395.826 9.42708 395.934 9.88163 396.171 10.2699C396.417 10.6581 396.754 10.9943 397.18 11.2784C397.606 11.553 398.098 11.7945 398.657 12.0028C399.216 12.2017 399.812 12.3722 400.447 12.5142L403.06 13.1392C404.329 13.4233 405.494 13.8021 406.555 14.2756C407.615 14.7491 408.534 15.3314 409.31 16.0227C410.087 16.714 410.688 17.5284 411.114 18.4659C411.55 19.4034 411.772 20.4782 411.782 21.6903C411.772 23.4706 411.318 25.0142 410.418 26.321C409.528 27.6184 408.24 28.6269 406.555 29.3466C404.879 30.0568 402.857 30.4119 400.489 30.4119C398.141 30.4119 396.095 30.0521 394.353 29.3324C392.62 28.6127 391.266 27.5473 390.29 26.1364C389.325 24.7159 388.818 22.9593 388.771 20.8665H394.722C394.789 21.8419 395.068 22.6562 395.56 23.3097C396.062 23.9536 396.73 24.4413 397.563 24.7727C398.406 25.0947 399.358 25.2557 400.418 25.2557C401.46 25.2557 402.364 25.1042 403.131 24.8011C403.908 24.4981 404.509 24.0767 404.935 23.5369C405.362 22.9972 405.575 22.3769 405.575 21.6761C405.575 21.0227 405.38 20.4735 404.992 20.0284C404.613 19.5833 404.055 19.2045 403.316 18.892C402.587 18.5795 401.692 18.2955 400.631 18.0398L397.464 17.2443C395.011 16.6477 393.075 15.715 391.654 14.446C390.234 13.1771 389.528 11.4678 389.538 9.31818C389.528 7.55682 389.997 6.01799 390.944 4.7017C391.9 3.38542 393.212 2.35795 394.879 1.61932C396.545 0.880681 398.439 0.511363 400.56 0.511363C402.719 0.511363 404.604 0.880681 406.214 1.61932C407.833 2.35795 409.093 3.38542 409.992 4.7017C410.892 6.01799 411.356 7.54261 411.384 9.27557H405.489Z" fill="#1A1A1A"/>
</svg>
