<svg width="34" height="40" viewBox="0 0 34 40" fill="none" xmlns="http://www.w3.org/2000/svg">
<path d="M15.2529 39.193C2.38797 22.7368 0 21.0479 0 15C0 6.7157 7.61113 0 17 0C26.3889 0 34 6.7157 34 15C34 21.0479 31.612 22.7368 18.7471 39.193C17.9029 40.2691 16.0971 40.269 15.2529 39.193Z" fill="#3A67BD"/>
<path d="M15.3324 7.91433L13.6934 10.3742L9.9807 10.3824L6.26318 10.3947L8.11716 13.1498L9.97115 15.909L8.11716 18.6641L6.26318 21.4232L9.9807 21.4355L13.6934 21.4437L15.3324 23.9036C16.2355 25.2566 16.9857 26.3635 17 26.3635C17.0144 26.3635 17.7646 25.2566 18.6677 23.9036L20.3066 21.4437L24.0193 21.4355L27.7369 21.4232L25.8829 18.6641L24.0289 15.909L25.8829 13.1498L27.7369 10.3947L24.0193 10.3824L20.3066 10.3742L18.6677 7.91433C17.7646 6.56139 17.0144 5.45443 17 5.45443C16.9857 5.45443 16.2355 6.56139 15.3324 7.91433ZM17.8267 9.12378C18.2663 9.78795 18.6246 10.3414 18.6246 10.3537C18.6246 10.366 17.8936 10.3742 17 10.3742C16.1065 10.3742 15.3754 10.366 15.3754 10.3537C15.3754 10.3127 16.9714 7.91433 17 7.91433C17.0144 7.91433 17.3871 8.4596 17.8267 9.12378ZM12.8333 11.6411C12.7856 11.7518 10.8217 14.638 10.7978 14.638C10.7787 14.638 10.3677 14.0436 9.88036 13.3179C9.39297 12.5922 8.93903 11.9117 8.86258 11.801L8.73357 11.6042H10.793C11.9255 11.6042 12.8429 11.6206 12.8333 11.6411ZM20.923 13.7525C21.7067 14.9209 22.3517 15.8926 22.3517 15.909C22.3517 15.9254 21.7067 16.897 20.923 18.0655L19.4943 20.1933H17H14.5058L13.077 18.0655C12.2934 16.897 11.6483 15.9254 11.6483 15.909C11.6483 15.8844 13.1344 13.6582 14.4006 11.7764L14.5201 11.6042L17.0048 11.6124L19.4943 11.6247L20.923 13.7525ZM25.1375 11.801C25.061 11.9117 24.6071 12.5922 24.1197 13.3179C23.6323 14.0436 23.2214 14.638 23.2023 14.638C23.1784 14.638 21.2145 11.7518 21.1667 11.6411C21.1571 11.6206 22.0746 11.6042 23.207 11.6042H25.2665L25.1375 11.801ZM11.8347 18.6805C12.389 19.5086 12.8381 20.1933 12.8286 20.2015C12.819 20.2097 11.8968 20.2097 10.7787 20.2056L8.7479 20.1933L9.75612 18.6887C10.3104 17.8605 10.7787 17.1799 10.793 17.1799C10.8121 17.1799 11.2804 17.8564 11.8347 18.6805ZM24.2439 18.6887L25.2522 20.1933L23.2214 20.2056C22.1033 20.2097 21.181 20.2097 21.1715 20.2015C21.1476 20.1769 23.1688 17.1799 23.207 17.1799C23.2214 17.1799 23.6896 17.8605 24.2439 18.6887ZM18.6246 21.4642C18.6246 21.5052 17.0287 23.9036 17 23.9036C16.9714 23.9036 15.3754 21.5052 15.3754 21.4642C15.3754 21.4519 16.1065 21.4437 17 21.4437C17.8936 21.4437 18.6246 21.4519 18.6246 21.4642Z" fill="white"/>
</svg>
