<svg width="402" height="49" viewBox="0 0 402 49" fill="none" xmlns="http://www.w3.org/2000/svg">
<path d="M10.5897 0.727271V48H0.594993V0.727271H10.5897ZM58.3529 0.727271V48H49.7201L29.1537 18.2468H28.8074V48H18.8128V0.727271H27.5841L47.9889 30.4574H48.4044V0.727271H58.3529ZM64.8102 8.96768V0.727271H103.635V8.96768H89.1621V48H79.2828V8.96768H64.8102ZM110.029 48V0.727271H141.882V8.96768H120.023V20.2319H140.243V28.4723H120.023V39.7596H141.975V48H110.029ZM149.828 48V0.727271H168.479C172.049 0.727271 175.096 1.36588 177.62 2.64311C180.159 3.90495 182.09 5.69768 183.413 8.02131C184.752 10.3295 185.421 13.0456 185.421 16.1694C185.421 19.3086 184.744 22.0092 183.39 24.2713C182.036 26.518 180.074 28.2415 177.504 29.4418C174.95 30.642 171.857 31.2422 168.225 31.2422H155.737V23.2095H166.609C168.517 23.2095 170.102 22.9479 171.364 22.4247C172.626 21.9015 173.565 21.1167 174.18 20.0703C174.811 19.0239 175.127 17.7236 175.127 16.1694C175.127 14.5998 174.811 13.2764 174.18 12.1992C173.565 11.122 172.618 10.3065 171.341 9.75248C170.079 9.18312 168.487 8.89844 166.563 8.89844H159.823V48H149.828ZM175.358 26.4872L187.106 48H176.073L164.578 26.4872H175.358Z" fill="#E34D4D"/>
<path d="M201.025 0.727271L212.451 36.6435H212.889L224.338 0.727271H235.418L219.122 48H206.242L189.922 0.727271H201.025ZM251.102 0.727271V48H241.108V0.727271H251.102ZM259.325 48V0.727271H291.179V8.96768H269.32V20.2319H289.54V28.4723H269.32V39.7596H291.271V48H259.325ZM309.766 48L296.24 0.727271H307.158L314.983 33.5735H315.375L324.008 0.727271H333.356L341.966 33.6428H342.382L350.207 0.727271H361.125L347.598 48H337.858L328.855 17.0927H328.486L319.507 48H309.766ZM391.674 14.3228C391.489 12.4608 390.697 11.0143 389.297 9.98331C387.896 8.95229 385.996 8.43679 383.595 8.43679C381.964 8.43679 380.587 8.66761 379.464 9.12926C378.34 9.57552 377.478 10.1987 376.878 10.9989C376.294 11.7991 376.001 12.707 376.001 13.7227C375.97 14.569 376.147 15.3076 376.532 15.9386C376.932 16.5695 377.478 17.1158 378.171 17.5774C378.863 18.0237 379.664 18.4161 380.571 18.7546C381.479 19.0778 382.449 19.3548 383.48 19.5856L387.727 20.6012C389.789 21.0629 391.682 21.6784 393.405 22.4478C395.129 23.2172 396.621 24.1636 397.883 25.2869C399.145 26.4103 400.122 27.7337 400.815 29.2571C401.523 30.7805 401.884 32.5271 401.9 34.4968C401.884 37.3898 401.146 39.8981 399.684 42.0217C398.237 44.1299 396.144 45.7687 393.405 46.9382C390.682 48.0923 387.396 48.6694 383.549 48.6694C379.733 48.6694 376.409 48.0846 373.578 46.9151C370.761 45.7456 368.561 44.0144 366.976 41.7216C365.406 39.4134 364.583 36.5588 364.506 33.158H374.178C374.285 34.743 374.739 36.0664 375.54 37.1282C376.355 38.1746 377.44 38.9671 378.794 39.5057C380.164 40.0289 381.71 40.2905 383.434 40.2905C385.126 40.2905 386.596 40.0443 387.842 39.5518C389.104 39.0594 390.081 38.3746 390.774 37.4975C391.466 36.6204 391.813 35.6125 391.813 34.4737C391.813 33.4119 391.497 32.5194 390.866 31.7962C390.251 31.0729 389.343 30.4574 388.142 29.9496C386.958 29.4418 385.503 28.9801 383.78 28.5646L378.633 27.272C374.647 26.3026 371.5 24.7868 369.192 22.7248C366.884 20.6628 365.737 17.8852 365.753 14.392C365.737 11.5298 366.499 9.02924 368.038 6.89027C369.592 4.7513 371.723 3.08168 374.432 1.88139C377.14 0.681106 380.218 0.0809641 383.665 0.0809641C387.173 0.0809641 390.235 0.681106 392.851 1.88139C395.483 3.08168 397.529 4.7513 398.991 6.89027C400.453 9.02924 401.207 11.5067 401.253 14.3228H391.674Z" fill="#1A1A1A"/>
</svg>
