<svg width="411" height="32" viewBox="0 0 411 32" fill="none" xmlns="http://www.w3.org/2000/svg">
<path d="M18.1294 9.23935C18.0101 8.03622 17.498 7.10156 16.5932 6.43537C15.6884 5.76917 14.4604 5.43608 12.9093 5.43608C11.8553 5.43608 10.9654 5.58523 10.2395 5.88352C9.51367 6.17188 8.95685 6.57457 8.56907 7.09162C8.19123 7.60866 8.00231 8.19531 8.00231 8.85156C7.98242 9.39844 8.09677 9.87571 8.34535 10.2834C8.60387 10.6911 8.95685 11.044 9.4043 11.3423C9.85174 11.6307 10.3688 11.8842 10.9554 12.103C11.5421 12.3118 12.1685 12.4908 12.8347 12.6399L15.579 13.2962C16.9114 13.5945 18.1344 13.9922 19.248 14.4893C20.3617 14.9865 21.3262 15.598 22.1415 16.3239C22.9569 17.0497 23.5882 17.9048 24.0357 18.8892C24.4931 19.8736 24.7267 21.0021 24.7367 22.2749C24.7267 24.1442 24.2495 25.7649 23.3049 27.1371C22.3702 28.4993 21.0179 29.5582 19.248 30.3139C17.4881 31.0597 15.3652 31.4325 12.8794 31.4325C10.4135 31.4325 8.2658 31.0547 6.43626 30.299C4.61665 29.5433 3.19478 28.4247 2.17063 26.9432C1.15643 25.4517 0.624467 23.6072 0.574751 21.4098H6.82404C6.89364 22.4339 7.18697 23.2891 7.70401 23.9751C8.231 24.6513 8.932 25.1634 9.807 25.5114C10.6919 25.8494 11.6912 26.0185 12.8049 26.0185C13.8986 26.0185 14.8482 25.8594 15.6536 25.5412C16.4689 25.223 17.1003 24.7805 17.5478 24.2138C17.9952 23.647 18.2189 22.9957 18.2189 22.2599C18.2189 21.5739 18.0151 20.9972 17.6074 20.5298C17.2097 20.0625 16.623 19.6648 15.8475 19.3366C15.0819 19.0085 14.1422 18.7102 13.0286 18.4418L9.70259 17.6065C7.12731 16.9801 5.09393 16.0007 3.60245 14.6683C2.11097 13.3359 1.37021 11.5412 1.38015 9.28409C1.37021 7.43466 1.86239 5.81889 2.85671 4.43679C3.86097 3.05469 5.2381 1.97585 6.9881 1.20028C8.7381 0.424715 10.7267 0.0369307 12.954 0.0369307C15.2211 0.0369307 17.1998 0.424715 18.8901 1.20028C20.5904 1.97585 21.9128 3.05469 22.8574 4.43679C23.802 5.81889 24.2892 7.41974 24.3191 9.23935H18.1294ZM29.0806 31V0.454545H41.1317C43.4485 0.454545 45.4222 0.897016 47.0529 1.78196C48.6836 2.65696 49.9265 3.875 50.7816 5.43608C51.6467 6.98721 52.0792 8.77699 52.0792 10.8054C52.0792 12.8338 51.6417 14.6236 50.7667 16.1747C49.8917 17.7259 48.6239 18.9339 46.9634 19.799C45.3129 20.6641 43.3143 21.0966 40.9677 21.0966H33.2866V15.9212H39.9237C41.1665 15.9212 42.1907 15.7074 42.9961 15.2798C43.8114 14.8423 44.418 14.2408 44.8157 13.4751C45.2234 12.6996 45.4272 11.8097 45.4272 10.8054C45.4272 9.79119 45.2234 8.90625 44.8157 8.15057C44.418 7.38494 43.8114 6.79332 42.9961 6.37571C42.1808 5.94815 41.1467 5.73438 39.8938 5.73438H35.5387V31H29.0806ZM56.274 31V0.454545H76.8564V5.77912H62.7321V13.0575H75.7974V18.3821H62.7321V25.6754H76.916V31H56.274ZM108.942 11.1484H102.409C102.29 10.3033 102.046 9.55256 101.678 8.89631C101.31 8.23011 100.838 7.66335 100.261 7.19602C99.6847 6.72869 99.0185 6.37074 98.2628 6.12216C97.517 5.87358 96.7067 5.74929 95.8317 5.74929C94.2507 5.74929 92.8736 6.14205 91.7003 6.92756C90.527 7.70312 89.6172 8.83665 88.9709 10.3281C88.3246 11.8097 88.0014 13.6094 88.0014 15.7273C88.0014 17.9048 88.3246 19.7344 88.9709 21.2159C89.6271 22.6974 90.5419 23.8161 91.7152 24.5717C92.8885 25.3274 94.2457 25.7053 95.7869 25.7053C96.652 25.7053 97.4524 25.5909 98.1882 25.3622C98.9339 25.1335 99.5952 24.8004 100.172 24.3629C100.749 23.9155 101.226 23.3736 101.604 22.7372C101.991 22.1009 102.26 21.375 102.409 20.5597L108.942 20.5895C108.773 21.9915 108.35 23.3438 107.674 24.6463C107.008 25.9389 106.108 27.0973 104.974 28.1214C103.851 29.1357 102.509 29.9411 100.947 30.5376C99.3963 31.1243 97.6413 31.4176 95.6825 31.4176C92.9581 31.4176 90.522 30.8011 88.3743 29.5682C86.2365 28.3352 84.5462 26.5504 83.3033 24.2138C82.0703 21.8771 81.4538 19.0483 81.4538 15.7273C81.4538 12.3963 82.0803 9.5625 83.3331 7.22585C84.5859 4.8892 86.2862 3.10937 88.4339 1.88636C90.5817 0.653408 92.9979 0.0369307 95.6825 0.0369307C97.4524 0.0369307 99.093 0.28551 100.604 0.78267C102.126 1.27983 103.473 2.00568 104.646 2.96023C105.82 3.90483 106.774 5.06321 107.51 6.43537C108.256 7.80753 108.733 9.37855 108.942 11.1484ZM120.031 0.454545V31H113.573V0.454545H120.031ZM130.609 31H123.689L134.233 0.454545H142.556L153.086 31H146.165L138.514 7.43466H138.275L130.609 31ZM130.177 18.9936H146.523V24.0348H130.177V18.9936ZM156.762 31V0.454545H163.22V25.6754H176.316V31H156.762Z" fill="#1A1A1A"/>
<path d="M190.313 31V0.454545H202.364C204.681 0.454545 206.655 0.897016 208.285 1.78196C209.916 2.65696 211.159 3.875 212.014 5.43608C212.879 6.98721 213.312 8.77699 213.312 10.8054C213.312 12.8338 212.874 14.6236 211.999 16.1747C211.124 17.7259 209.856 18.9339 208.196 19.799C206.545 20.6641 204.547 21.0966 202.2 21.0966H194.519V15.9212H201.156C202.399 15.9212 203.423 15.7074 204.229 15.2798C205.044 14.8423 205.65 14.2408 206.048 13.4751C206.456 12.6996 206.66 11.8097 206.66 10.8054C206.66 9.79119 206.456 8.90625 206.048 8.15057C205.65 7.38494 205.044 6.79332 204.229 6.37571C203.413 5.94815 202.379 5.73438 201.126 5.73438H196.771V31H190.313ZM217.506 31V0.454545H229.558C231.864 0.454545 233.833 0.867187 235.464 1.69247C237.104 2.50781 238.352 3.66619 239.207 5.16761C240.072 6.65909 240.505 8.41406 240.505 10.4325C240.505 12.4609 240.067 14.206 239.192 15.6676C238.317 17.1193 237.05 18.233 235.389 19.0085C233.739 19.7841 231.74 20.1719 229.393 20.1719H221.325V14.9815H228.349C229.582 14.9815 230.607 14.8125 231.422 14.4744C232.237 14.1364 232.844 13.6293 233.241 12.9531C233.649 12.277 233.853 11.4368 233.853 10.4325C233.853 9.41832 233.649 8.56321 233.241 7.86719C232.844 7.17116 232.232 6.64417 231.407 6.28622C230.592 5.91832 229.563 5.73438 228.32 5.73438H223.964V31H217.506ZM234.002 17.0994L241.594 31H234.464L227.037 17.0994H234.002ZM273.138 15.7273C273.138 19.0582 272.507 21.892 271.244 24.2287C269.991 26.5653 268.281 28.3501 266.114 29.5831C263.956 30.8061 261.53 31.4176 258.835 31.4176C256.121 31.4176 253.685 30.8011 251.527 29.5682C249.369 28.3352 247.664 26.5504 246.411 24.2138C245.158 21.8771 244.532 19.0483 244.532 15.7273C244.532 12.3963 245.158 9.5625 246.411 7.22585C247.664 4.8892 249.369 3.10937 251.527 1.88636C253.685 0.653408 256.121 0.0369307 258.835 0.0369307C261.53 0.0369307 263.956 0.653408 266.114 1.88636C268.281 3.10937 269.991 4.8892 271.244 7.22585C272.507 9.5625 273.138 12.3963 273.138 15.7273ZM266.591 15.7273C266.591 13.5696 266.268 11.75 265.621 10.2685C264.985 8.78693 264.085 7.66335 262.922 6.89773C261.759 6.1321 260.396 5.74929 258.835 5.74929C257.274 5.74929 255.912 6.1321 254.749 6.89773C253.585 7.66335 252.68 8.78693 252.034 10.2685C251.398 11.75 251.08 13.5696 251.08 15.7273C251.08 17.8849 251.398 19.7045 252.034 21.1861C252.68 22.6676 253.585 23.7912 254.749 24.5568C255.912 25.3224 257.274 25.7053 258.835 25.7053C260.396 25.7053 261.759 25.3224 262.922 24.5568C264.085 23.7912 264.985 22.6676 265.621 21.1861C266.268 19.7045 266.591 17.8849 266.591 15.7273ZM290.153 0.454545H296.536V21.7528C296.536 23.7216 296.094 25.4318 295.209 26.8835C294.334 28.3352 293.116 29.4538 291.555 30.2393C289.993 31.0249 288.179 31.4176 286.111 31.4176C284.271 31.4176 282.601 31.0945 281.099 30.4482C279.608 29.7919 278.425 28.7976 277.55 27.4652C276.675 26.1229 276.242 24.4375 276.252 22.4091H282.68C282.7 23.2145 282.864 23.9055 283.172 24.4822C283.491 25.049 283.923 25.4865 284.47 25.7947C285.027 26.093 285.683 26.2422 286.439 26.2422C287.234 26.2422 287.905 26.0732 288.452 25.7351C289.009 25.3871 289.432 24.88 289.72 24.2138C290.008 23.5476 290.153 22.7273 290.153 21.7528V0.454545ZM301.876 31V0.454545H322.458V5.77912H308.334V13.0575H321.399V18.3821H308.334V25.6754H322.518V31H301.876ZM354.543 11.1484H348.011C347.891 10.3033 347.648 9.55256 347.28 8.89631C346.912 8.23011 346.44 7.66335 345.863 7.19602C345.286 6.72869 344.62 6.37074 343.864 6.12216C343.119 5.87358 342.308 5.74929 341.433 5.74929C339.852 5.74929 338.475 6.14205 337.302 6.92756C336.129 7.70312 335.219 8.83665 334.572 10.3281C333.926 11.8097 333.603 13.6094 333.603 15.7273C333.603 17.9048 333.926 19.7344 334.572 21.2159C335.229 22.6974 336.143 23.8161 337.317 24.5717C338.49 25.3274 339.847 25.7053 341.388 25.7053C342.254 25.7053 343.054 25.5909 343.79 25.3622C344.536 25.1335 345.197 24.8004 345.773 24.3629C346.35 23.9155 346.827 23.3736 347.205 22.7372C347.593 22.1009 347.862 21.375 348.011 20.5597L354.543 20.5895C354.374 21.9915 353.952 23.3438 353.276 24.6463C352.609 25.9389 351.71 27.0973 350.576 28.1214C349.452 29.1357 348.11 29.9411 346.549 30.5376C344.998 31.1243 343.243 31.4176 341.284 31.4176C338.56 31.4176 336.124 30.8011 333.976 29.5682C331.838 28.3352 330.148 26.5504 328.905 24.2138C327.672 21.8771 327.055 19.0483 327.055 15.7273C327.055 12.3963 327.682 9.5625 328.935 7.22585C330.188 4.8892 331.888 3.10937 334.036 1.88636C336.183 0.653408 338.599 0.0369307 341.284 0.0369307C343.054 0.0369307 344.695 0.28551 346.206 0.78267C347.727 1.27983 349.075 2.00568 350.248 2.96023C351.421 3.90483 352.376 5.06321 353.112 6.43537C353.857 7.80753 354.335 9.37855 354.543 11.1484ZM358.011 5.77912V0.454545H383.098V5.77912H373.746V31H367.363V5.77912H358.011ZM403.799 9.23935C403.68 8.03622 403.168 7.10156 402.263 6.43537C401.358 5.76917 400.13 5.43608 398.579 5.43608C397.525 5.43608 396.635 5.58523 395.909 5.88352C395.184 6.17188 394.627 6.57457 394.239 7.09162C393.861 7.60866 393.672 8.19531 393.672 8.85156C393.652 9.39844 393.767 9.87571 394.015 10.2834C394.274 10.6911 394.627 11.044 395.074 11.3423C395.522 11.6307 396.039 11.8842 396.625 12.103C397.212 12.3118 397.838 12.4908 398.505 12.6399L401.249 13.2962C402.581 13.5945 403.804 13.9922 404.918 14.4893C406.032 14.9865 406.996 15.598 407.811 16.3239C408.627 17.0497 409.258 17.9048 409.706 18.8892C410.163 19.8736 410.397 21.0021 410.407 22.2749C410.397 24.1442 409.919 25.7649 408.975 27.1371C408.04 28.4993 406.688 29.5582 404.918 30.3139C403.158 31.0597 401.035 31.4325 398.549 31.4325C396.083 31.4325 393.936 31.0547 392.106 30.299C390.287 29.5433 388.865 28.4247 387.841 26.9432C386.826 25.4517 386.294 23.6072 386.245 21.4098H392.494C392.564 22.4339 392.857 23.2891 393.374 23.9751C393.901 24.6513 394.602 25.1634 395.477 25.5114C396.362 25.8494 397.361 26.0185 398.475 26.0185C399.569 26.0185 400.518 25.8594 401.324 25.5412C402.139 25.223 402.77 24.7805 403.218 24.2138C403.665 23.647 403.889 22.9957 403.889 22.2599C403.889 21.5739 403.685 20.9972 403.277 20.5298C402.88 20.0625 402.293 19.6648 401.517 19.3366C400.752 19.0085 399.812 18.7102 398.699 18.4418L395.373 17.6065C392.797 16.9801 390.764 16.0007 389.272 14.6683C387.781 13.3359 387.04 11.5412 387.05 9.28409C387.04 7.43466 387.532 5.81889 388.527 4.43679C389.531 3.05469 390.908 1.97585 392.658 1.20028C394.408 0.424715 396.397 0.0369307 398.624 0.0369307C400.891 0.0369307 402.87 0.424715 404.56 1.20028C406.26 1.97585 407.583 3.05469 408.527 4.43679C409.472 5.81889 409.959 7.41974 409.989 9.23935H403.799Z" fill="#E34D4D"/>
</svg>
