<svg width="412" height="91" viewBox="0 0 412 91" fill="none" xmlns="http://www.w3.org/2000/svg">
<path d="M0.137784 0.90909H7.72301L15.7344 20.4545H16.0753L24.0866 0.90909H31.6719V30H25.706V11.0653H25.4645L17.9361 29.858H13.8736L6.34517 10.9943H6.10369V30H0.137784V0.90909ZM41.7536 30H35.1626L45.2053 0.90909H53.1314L63.1598 30H56.5689L49.282 7.55682H49.0547L41.7536 30ZM41.3416 18.5653H56.9098V23.3665H41.3416V18.5653ZM66.6612 30V0.90909H78.1385C80.3449 0.90909 82.2247 1.33049 83.7777 2.1733C85.3307 3.00663 86.5144 4.16667 87.3288 5.65341C88.1527 7.13068 88.5646 8.83523 88.5646 10.767C88.5646 12.6989 88.148 14.4034 87.3146 15.8807C86.4813 17.358 85.2739 18.5085 83.6925 19.3324C82.1205 20.1562 80.2171 20.5682 77.9822 20.5682H70.6669V15.6392H76.9879C78.1716 15.6392 79.147 15.4356 79.9141 15.0284C80.6906 14.6117 81.2682 14.0388 81.647 13.3097C82.0353 12.571 82.2294 11.7235 82.2294 10.767C82.2294 9.80114 82.0353 8.95833 81.647 8.23864C81.2682 7.50947 80.6906 6.94602 79.9141 6.5483C79.1375 6.1411 78.1527 5.9375 76.9595 5.9375H72.8118V30H66.6612ZM92.5597 30V0.90909H104.037C106.243 0.90909 108.123 1.33049 109.676 2.1733C111.229 3.00663 112.413 4.16667 113.227 5.65341C114.051 7.13068 114.463 8.83523 114.463 10.767C114.463 12.6989 114.046 14.4034 113.213 15.8807C112.38 17.358 111.172 18.5085 109.591 19.3324C108.019 20.1562 106.116 20.5682 103.881 20.5682H96.5653V15.6392H102.886C104.07 15.6392 105.045 15.4356 105.812 15.0284C106.589 14.6117 107.167 14.0388 107.545 13.3097C107.934 12.571 108.128 11.7235 108.128 10.767C108.128 9.80114 107.934 8.95833 107.545 8.23864C107.167 7.50947 106.589 6.94602 105.812 6.5483C105.036 6.1411 104.051 5.9375 102.858 5.9375H98.7102V30H92.5597ZM124.609 0.90909V30H118.458V0.90909H124.609ZM154.001 0.90909V30H148.689L136.033 11.6903H135.82V30H129.669V0.90909H135.067L147.624 19.2045H147.879V0.90909H154.001ZM178.373 10.3125C178.174 9.62121 177.895 9.01042 177.535 8.48011C177.175 7.94034 176.735 7.4858 176.214 7.11648C175.702 6.73769 175.115 6.44886 174.452 6.25C173.799 6.05114 173.075 5.9517 172.279 5.9517C170.792 5.9517 169.486 6.32102 168.359 7.05966C167.241 7.79829 166.37 8.87311 165.745 10.2841C165.12 11.6856 164.808 13.3996 164.808 15.4261C164.808 17.4527 165.115 19.1761 165.731 20.5966C166.346 22.017 167.218 23.1013 168.344 23.8494C169.471 24.5881 170.802 24.9574 172.336 24.9574C173.728 24.9574 174.916 24.7112 175.901 24.2188C176.896 23.7169 177.653 23.0114 178.174 22.1023C178.704 21.1932 178.969 20.1184 178.969 18.8778L180.219 19.0625H172.719V14.4318H184.893V18.0966C184.893 20.6534 184.353 22.8504 183.273 24.6875C182.194 26.5152 180.707 27.9261 178.813 28.9205C176.919 29.9053 174.751 30.3977 172.308 30.3977C169.58 30.3977 167.184 29.7964 165.12 28.5938C163.056 27.3816 161.446 25.6629 160.29 23.4375C159.145 21.2027 158.572 18.5511 158.572 15.483C158.572 13.125 158.913 11.0227 159.594 9.17614C160.286 7.32008 161.252 5.74811 162.492 4.46023C163.733 3.17235 165.177 2.19223 166.825 1.51989C168.472 0.847537 170.257 0.511363 172.18 0.511363C173.827 0.511363 175.362 0.75284 176.782 1.2358C178.202 1.70928 179.462 2.38163 180.56 3.25284C181.668 4.12405 182.573 5.16098 183.273 6.36364C183.974 7.55682 184.424 8.87311 184.623 10.3125H178.373ZM142.445 39.8182H153.055V72.407C153.055 76.0661 152.181 79.2678 150.433 82.0121C148.701 84.7564 146.276 86.8963 143.156 88.4318C140.036 89.951 136.401 90.7106 132.252 90.7106C128.086 90.7106 124.444 89.951 121.324 88.4318C118.204 86.8963 115.778 84.7564 114.046 82.0121C112.315 79.2678 111.449 76.0661 111.449 72.407V39.8182H122.059V71.5004C122.059 73.4116 122.475 75.1104 123.308 76.5969C124.158 78.0835 125.35 79.2514 126.886 80.1009C128.421 80.9503 130.21 81.375 132.252 81.375C134.31 81.375 136.099 80.9503 137.618 80.1009C139.153 79.2514 140.338 78.0835 141.171 76.5969C142.02 75.1104 142.445 73.4116 142.445 71.5004V39.8182ZM161.784 90V39.8182H172.394V61.9442H173.055L191.114 39.8182H203.831L185.209 62.2873L204.051 90H191.359L177.613 69.3686L172.394 75.7393V90H161.784ZM209.356 90V39.8182H229.154C232.944 39.8182 236.179 40.4961 238.858 41.8519C241.553 43.1914 243.603 45.0945 245.008 47.5611C246.429 50.0114 247.14 52.8945 247.14 56.2106C247.14 59.543 246.421 62.4098 244.983 64.8111C243.546 67.196 241.463 69.0256 238.735 70.2997C236.023 71.5739 232.74 72.2109 228.885 72.2109H215.629V63.6839H227.17C229.195 63.6839 230.878 63.4062 232.217 62.8509C233.557 62.2955 234.553 61.4624 235.207 60.3516C235.876 59.2408 236.211 57.8604 236.211 56.2106C236.211 54.5444 235.876 53.1396 235.207 51.9961C234.553 50.8526 233.549 49.9869 232.193 49.3988C230.853 48.7944 229.163 48.4922 227.121 48.4922H219.966V90H209.356ZM236.456 67.1634L248.928 90H237.216L225.013 67.1634H236.456ZM263.287 90H251.918L269.241 39.8182H282.914L300.213 90H288.843L276.273 51.2855H275.881L263.287 90ZM262.576 70.2752H289.431V78.5572H262.576V70.2752ZM316.862 39.8182V90H306.253V39.8182H316.862ZM367.565 39.8182V90H358.401L336.569 58.4158H336.201V90H325.591V39.8182H334.903L356.563 71.3778H357.004V39.8182H367.565ZM376.331 90V39.8182H410.145V48.5657H386.94V60.5231H408.405V69.2706H386.94V81.2525H410.243V90H376.331Z" fill="#E34D4D"/>
<path d="M198.771 0.90909H206.356L214.367 20.4545H214.708L222.719 0.90909H230.305V30H224.339V11.0653H224.097L216.569 29.858H212.506L204.978 10.9943H204.737V30H198.771V0.90909ZM235.372 30V0.90909H254.974V5.98011H241.523V12.9119H253.966V17.983H241.523V24.929H255.031V30H235.372ZM259.864 0.90909H267.45L275.461 20.4545H275.802L283.813 0.90909H291.398V30H285.433V11.0653H285.191L277.663 29.858H273.6L266.072 10.9943H265.83V30H259.864V0.90909ZM323.199 15.4545C323.199 18.6269 322.598 21.3258 321.395 23.5511C320.202 25.7765 318.573 27.4763 316.509 28.6506C314.454 29.8153 312.143 30.3977 309.577 30.3977C306.991 30.3977 304.671 29.8106 302.616 28.6364C300.562 27.4621 298.938 25.7623 297.744 23.5369C296.551 21.3116 295.955 18.6174 295.955 15.4545C295.955 12.2822 296.551 9.58333 297.744 7.35795C298.938 5.13258 300.562 3.4375 302.616 2.27273C304.671 1.09848 306.991 0.511363 309.577 0.511363C312.143 0.511363 314.454 1.09848 316.509 2.27273C318.573 3.4375 320.202 5.13258 321.395 7.35795C322.598 9.58333 323.199 12.2822 323.199 15.4545ZM316.963 15.4545C316.963 13.3996 316.655 11.6667 316.04 10.2557C315.434 8.8447 314.577 7.77462 313.469 7.04545C312.361 6.31629 311.063 5.9517 309.577 5.9517C308.09 5.9517 306.793 6.31629 305.685 7.04545C304.577 7.77462 303.715 8.8447 303.099 10.2557C302.493 11.6667 302.19 13.3996 302.19 15.4545C302.19 17.5095 302.493 19.2424 303.099 20.6534C303.715 22.0644 304.577 23.1345 305.685 23.8636C306.793 24.5928 308.09 24.9574 309.577 24.9574C311.063 24.9574 312.361 24.5928 313.469 23.8636C314.577 23.1345 315.434 22.0644 316.04 20.6534C316.655 19.2424 316.963 17.5095 316.963 15.4545ZM327.755 30V0.90909H339.232C341.429 0.90909 343.304 1.30208 344.857 2.08807C346.42 2.86458 347.608 3.9678 348.423 5.39773C349.246 6.81818 349.658 8.48958 349.658 10.4119C349.658 12.3437 349.242 14.0057 348.408 15.3977C347.575 16.7803 346.368 17.8409 344.786 18.5795C343.214 19.3182 341.311 19.6875 339.076 19.6875H331.391V14.7443H338.082C339.256 14.7443 340.231 14.5833 341.008 14.2614C341.784 13.9394 342.362 13.4564 342.741 12.8125C343.129 12.1686 343.323 11.3684 343.323 10.4119C343.323 9.44602 343.129 8.63163 342.741 7.96875C342.362 7.30587 341.78 6.80398 340.994 6.46307C340.217 6.11269 339.237 5.9375 338.053 5.9375H333.906V30H327.755ZM343.465 16.7614L350.695 30H343.906L336.832 16.7614H343.465ZM360.156 0.90909V30H354.005V0.90909H360.156ZM365.216 30V0.90909H384.818V5.98011H371.366V12.9119H383.81V17.983H371.366V24.929H384.875V30H365.216ZM405.489 9.27557C405.376 8.12973 404.888 7.23958 404.026 6.60511C403.165 5.97064 401.995 5.65341 400.518 5.65341C399.514 5.65341 398.666 5.79545 397.975 6.07955C397.284 6.35417 396.754 6.73769 396.384 7.23011C396.024 7.72254 395.844 8.28125 395.844 8.90625C395.826 9.42708 395.934 9.88163 396.171 10.2699C396.417 10.6581 396.754 10.9943 397.18 11.2784C397.606 11.553 398.098 11.7945 398.657 12.0028C399.216 12.2017 399.812 12.3722 400.447 12.5142L403.06 13.1392C404.329 13.4233 405.494 13.8021 406.555 14.2756C407.615 14.7491 408.534 15.3314 409.31 16.0227C410.087 16.714 410.688 17.5284 411.114 18.4659C411.55 19.4034 411.772 20.4782 411.782 21.6903C411.772 23.4706 411.318 25.0142 410.418 26.321C409.528 27.6184 408.24 28.6269 406.555 29.3466C404.879 30.0568 402.857 30.4119 400.489 30.4119C398.141 30.4119 396.095 30.0521 394.353 29.3324C392.62 28.6127 391.266 27.5473 390.29 26.1364C389.325 24.7159 388.818 22.9593 388.771 20.8665H394.722C394.789 21.8419 395.068 22.6562 395.56 23.3097C396.062 23.9536 396.73 24.4413 397.563 24.7727C398.406 25.0947 399.358 25.2557 400.418 25.2557C401.46 25.2557 402.364 25.1042 403.131 24.8011C403.908 24.4981 404.509 24.0767 404.935 23.5369C405.362 22.9972 405.575 22.3769 405.575 21.6761C405.575 21.0227 405.38 20.4735 404.992 20.0284C404.613 19.5833 404.055 19.2045 403.316 18.892C402.587 18.5795 401.692 18.2955 400.631 18.0398L397.464 17.2443C395.011 16.6477 393.075 15.715 391.654 14.446C390.234 13.1771 389.528 11.4678 389.538 9.31818C389.528 7.55682 389.997 6.01799 390.944 4.7017C391.9 3.38542 393.212 2.35795 394.879 1.61932C396.545 0.880681 398.439 0.511363 400.56 0.511363C402.719 0.511363 404.604 0.880681 406.214 1.61932C407.833 2.35795 409.093 3.38542 409.992 4.7017C410.892 6.01799 411.356 7.54261 411.384 9.27557H405.489ZM47.2576 64.9091C47.2576 70.3814 46.2203 75.0369 44.1457 78.8757C42.0875 82.7145 39.2778 85.6467 35.7168 87.6722C32.172 89.6815 28.1862 90.6861 23.7594 90.6861C19.2998 90.6861 15.2977 89.6733 11.753 87.6477C8.20823 85.6222 5.40674 82.69 3.3485 78.8512C1.29026 75.0124 0.261142 70.3651 0.261142 64.9091C0.261142 59.4368 1.29026 54.7812 3.3485 50.9425C5.40674 47.1037 8.20823 44.1797 11.753 42.1705C15.2977 40.1449 19.2998 39.1321 23.7594 39.1321C28.1862 39.1321 32.172 40.1449 35.7168 42.1705C39.2778 44.1797 42.0875 47.1037 44.1457 50.9425C46.2203 54.7812 47.2576 59.4368 47.2576 64.9091ZM36.5008 64.9091C36.5008 61.3643 35.97 58.375 34.9082 55.9411C33.8627 53.5071 32.3844 51.6612 30.4731 50.4034C28.5619 49.1456 26.324 48.5167 23.7594 48.5167C21.1947 48.5167 18.9568 49.1456 17.0456 50.4034C15.1344 51.6612 13.6479 53.5071 12.5861 55.9411C11.5406 58.375 11.0179 61.3643 11.0179 64.9091C11.0179 68.4538 11.5406 71.4432 12.5861 73.8771C13.6479 76.3111 15.1344 78.157 17.0456 79.4148C18.9568 80.6726 21.1947 81.3015 23.7594 81.3015C26.324 81.3015 28.5619 80.6726 30.4731 79.4148C32.3844 78.157 33.8627 76.3111 34.9082 73.8771C35.97 71.4432 36.5008 68.4538 36.5008 64.9091ZM55.1169 90V39.8182H88.3427V48.5657H65.7266V60.5231H86.1375V69.2706H65.7266V90H55.1169Z" fill="#1A1A1A"/>
</svg>
