<svg width="34" height="40" viewBox="0 0 34 40" fill="none" xmlns="http://www.w3.org/2000/svg">
<path d="M15.2529 39.193C2.38797 22.7368 0 21.0479 0 15C0 6.7157 7.61113 0 17 0C26.3889 0 34 6.7157 34 15C34 21.0479 31.612 22.7368 18.7471 39.193C17.9029 40.2691 16.0971 40.269 15.2529 39.193Z" fill="#FF642C"/>
<path d="M16.2705 6.3957C14.8854 6.59673 13.7406 7.18639 12.7794 8.20042C11.9798 9.04471 11.4992 9.96047 11.2283 11.1532C11.1409 11.5418 11.1365 11.6893 11.1234 15.5623L11.106 19.5737H17.0089H22.9118L22.8943 15.6293C22.8725 11.2693 22.8812 11.3989 22.5798 10.4742C21.92 8.45505 20.3296 6.98537 18.276 6.50292C17.7604 6.37784 16.7555 6.32423 16.2705 6.3957Z" fill="white"/>
<path d="M10.6782 20.3509C10.4685 20.4268 10.2063 20.6681 10.0971 20.8825C10.0141 21.0433 10.001 21.146 10.001 21.5838L9.99658 22.0975L17.0006 22.1109L24.0089 22.1199L23.9915 21.5704C23.9784 21.0478 23.9696 21.0076 23.8473 20.7976C23.7643 20.6636 23.6332 20.5296 23.5021 20.4447L23.288 20.3107L17.0574 20.3018C12.2424 20.2973 10.7918 20.3062 10.6782 20.3509Z" fill="white"/>
<path d="M9.58082 22.906C9.3842 22.9953 9.16136 23.2142 9.04339 23.4376C8.95163 23.6073 8.94727 23.6698 8.94727 24.8804V26.1491L9.06961 26.2563L9.19195 26.3635H17.013H24.8341L24.9433 26.2518L25.0525 26.1402L25.0394 24.8268L25.0263 23.5135L24.8952 23.3214C24.821 23.2142 24.6768 23.0668 24.5719 22.9908L24.384 22.8568L17.0611 22.8479C10.5901 22.839 9.71626 22.8434 9.58082 22.906Z" fill="white"/>
</svg>
