<svg width="34" height="40" viewBox="0 0 34 40" fill="none" xmlns="http://www.w3.org/2000/svg">
<path d="M15.2529 39.193C2.38797 22.7368 0 21.0479 0 15C0 6.7157 7.61113 0 17 0C26.3889 0 34 6.7157 34 15C34 21.0479 31.612 22.7368 18.7471 39.193C17.9029 40.2691 16.0971 40.269 15.2529 39.193Z" fill="#E64444"/>
<path d="M25.4506 10.5592H23.1945V6.86823C23.1944 6.58941 22.9719 6.36344 22.6975 6.36353H22.3147C22.0403 6.36353 21.8179 6.58955 21.8179 6.86837V10.5592H19.5625C19.288 10.5592 19.0656 10.7853 19.0656 11.0641V18.9509H14.0583C13.7824 18.9509 13.5587 19.1782 13.5587 19.4586V24.0391C13.5594 24.3189 13.7829 24.5453 14.0583 24.5453H25.4506C25.725 24.5453 25.9475 24.3193 25.9475 24.0405V11.0637C25.9475 10.7848 25.725 10.5592 25.4506 10.5592ZM16.3118 21.7482H14.935V20.3494H16.3118V21.7482ZM19.0653 21.7482H17.6886V20.3494H19.0653V21.7482ZM21.8188 21.7482H20.4421V20.3494H21.8188V21.7482ZM21.8188 18.9505H20.4421V17.5517H21.8188V18.9505ZM21.8188 16.1528H20.4421V14.754H21.8188V16.1528ZM21.8188 13.3551H20.4421V11.9563H21.8188V13.3551ZM24.5724 21.7468H23.1956V20.348H24.5724V21.7468ZM24.5724 18.9491H23.1956V17.5503H24.5724V18.9491ZM24.5724 16.1514H23.1956V14.7526H24.5724V16.1514ZM24.5724 13.3537H23.1956V11.9549H24.5724V13.3537ZM17.6883 6.86823C17.6882 6.58947 17.4658 6.36353 17.1914 6.36353H14.0554C13.781 6.36353 13.5585 6.58955 13.5585 6.86837V9.16122H11.3019C11.0284 9.16191 10.8069 9.38697 10.8063 9.66481V10.5592H8.54947C8.27527 10.5593 8.05297 10.7851 8.05273 11.0637V24.0401C8.05273 24.3189 8.27519 24.5449 8.54961 24.5449H12.1822V17.5524H17.6883V6.86823ZM10.8063 21.7482H9.4295V20.3494H10.8063V21.7482ZM10.8063 18.9505H9.4295V17.5517H10.8063V18.9505ZM10.8063 16.1528H9.4295V14.754H10.8063V16.1528ZM10.8063 13.3551H9.4295V11.9563H10.8063V13.3551ZM13.5598 16.1528H12.183V14.754H13.5598V16.1528ZM13.5598 13.3551H12.183V11.9563H13.5598V13.3551ZM16.3133 16.1528H14.9365V14.754H16.3133V16.1528ZM16.3133 13.3551H14.9365V11.9563H16.3133V13.3551ZM16.3133 10.5574H14.9365V9.16122H16.3133V10.5601V10.5574Z" fill="white"/>
</svg>
