<svg width="120" height="76" viewBox="0 0 120 76" fill="none" xmlns="http://www.w3.org/2000/svg">
<path d="M0 35C0 15.67 15.67 0 35 0H120V38C120 58.9868 102.987 76 82 76H0V35Z" fill="#E34D4D"/>
<path d="M29.4531 35V17.6562H29.8047L34.9609 30.0391V35H29.4531ZM29.4531 11.25V7.65625H33.75L41.2109 25.7422L45.3516 16.4062H45.7422V29.1016L43.125 35H39.3359L29.4531 11.25ZM47.8516 35V7.65625H53.3594V35H47.8516ZM66.6406 35V17.6562H66.9922L72.1484 30.0391V35H66.6406ZM66.6406 11.25V7.65625H70.9375L78.3984 25.7422L82.5391 16.4062H82.9297V29.1016L80.3125 35H76.5234L66.6406 11.25ZM85.0391 35V7.65625H90.5469V35H85.0391Z" fill="white"/>
<path d="M32.9414 60.9453V50.75C32.9414 49.474 33.5013 48.224 34.6211 47C36.0273 45.5156 37.8112 44.7604 39.9727 44.7344V49.8125C38.8008 49.9167 38.1758 50.4115 38.0977 51.2969V60.3984C38.1497 61.4141 38.7747 61.9349 39.9727 61.9609V67.0391C37.4206 67.0391 35.4414 66.0104 34.0352 63.9531C33.306 62.8854 32.9414 61.8828 32.9414 60.9453ZM41.7695 67.0391V61.9609C42.8633 61.8307 43.4622 61.3359 43.5664 60.4766L43.5273 51.2969C43.3451 50.3594 42.7461 49.8646 41.7305 49.8125V44.7344C44.1784 44.7344 46.0924 45.724 47.4727 47.7031C48.2018 48.7708 48.5664 49.7865 48.5664 50.75V60.9453C48.5664 62.2474 48.0065 63.5234 46.8867 64.7734C45.5326 66.2578 43.8268 67.013 41.7695 67.0391ZM70.668 60.2148V42.3906H75.625V60.2148C75.6484 61.1758 76.1875 61.8086 77.2422 62.1133C77.4062 62.1602 77.5234 62.1836 77.5938 62.1836V67.1758C76.2344 67.1758 74.875 66.6953 73.5156 65.7344C71.6406 64.3516 70.6914 62.5117 70.668 60.2148ZM79.4922 67.1758V62.1836C79.9141 62.1836 80.3594 61.9844 80.8281 61.5859C81.2266 61.2109 81.4375 60.7539 81.4609 60.2148V42.3906H86.3828V60.2148C86.3828 62.8633 85.2109 64.8438 82.8672 66.1562C81.6953 66.8359 80.5703 67.1758 79.4922 67.1758Z" fill="white"/>
</svg>
