<svg width="34" height="40" viewBox="0 0 34 40" fill="none" xmlns="http://www.w3.org/2000/svg">
<path d="M15.2529 39.193C2.38797 22.7368 0 21.0479 0 15C0 6.7157 7.61113 0 17 0C26.3889 0 34 6.7157 34 15C34 21.0479 31.612 22.7368 18.7471 39.193C17.9029 40.2691 16.0971 40.269 15.2529 39.193Z" fill="#FF642C"/>
<path d="M16.7496 6.41351C16.6736 6.4448 16.0969 6.76551 15.4709 7.13314C14.5544 7.66895 14.3175 7.82539 14.2593 7.9349C14.1967 8.04441 14.1207 8.93221 13.848 12.7376C13.6647 15.3033 13.5127 17.4622 13.5127 17.5326V17.6616H17H20.4873V17.5599C20.4873 17.5013 20.3353 15.3424 20.152 12.7611C19.8748 8.9283 19.8032 8.04441 19.7406 7.9349C19.6825 7.82539 19.45 7.66895 18.529 7.13314C17.8986 6.76551 17.3219 6.44089 17.2414 6.41351C17.0581 6.34703 16.9285 6.34703 16.7496 6.41351Z" fill="white"/>
<path d="M12.6009 18.9405C12.5696 19.0735 12.127 21.4045 12.127 21.4319C12.127 21.4436 14.3177 21.4553 17.0002 21.4553C19.6828 21.4553 21.8735 21.4436 21.8735 21.4319C21.8735 21.4045 21.4309 19.0735 21.3996 18.9405L21.3728 18.8349H17.0002H12.6277L12.6009 18.9405Z" fill="white"/>
<path d="M9.85521 24.3063C9.86862 25.9333 9.87309 25.9881 9.96251 26.0937C10.0117 26.1523 10.1101 26.2384 10.1771 26.2814C10.2978 26.3635 10.3023 26.3635 16.9997 26.3635C23.6971 26.3635 23.7016 26.3635 23.8223 26.2814C23.8893 26.2384 23.9877 26.1523 24.0369 26.0937C24.1263 25.9881 24.1308 25.9333 24.1442 24.3063L24.1576 22.6285H16.9997H9.8418L9.85521 24.3063Z" fill="white"/>
</svg>
